<?xml version="1.0" encoding="utf-8"?>
<svg xmlns="http://www.w3.org/2000/svg" xmlns:xlink="http://www.w3.org/1999/xlink" width="600" height="400" viewBox="0 0 600 400">
<defs>
  <clipPath id="clip00">
    <rect x="0" y="0" width="600" height="400"/>
  </clipPath>
</defs>
<polygon clip-path="url(#clip00)" points="
0,400 600,400 600,0 0,0 
  " fill="#ffffff" fill-opacity="1"/>
<defs>
  <clipPath id="clip01">
    <rect x="120" y="0" width="421" height="400"/>
  </clipPath>
</defs>
<polygon clip-path="url(#clip00)" points="
36.9926,369.674 596.063,369.674 596.063,3.93701 36.9926,3.93701 
  " fill="#ffffff" fill-opacity="1"/>
<defs>
  <clipPath id="clip02">
    <rect x="36" y="3" width="560" height="366"/>
  </clipPath>
</defs>
<polyline clip-path="url(#clip02)" style="stroke:#00002d; stroke-width:0.8; stroke-opacity:0.5; fill:none" stroke-dasharray="1, 2" points="
  49.2042,364.188 49.2042,9.42306 
  "/>
<polyline clip-path="url(#clip02)" style="stroke:#00002d; stroke-width:0.8; stroke-opacity:0.5; fill:none" stroke-dasharray="1, 2" points="
  171.32,364.188 171.32,9.42306 
  "/>
<polyline clip-path="url(#clip02)" style="stroke:#00002d; stroke-width:0.8; stroke-opacity:0.5; fill:none" stroke-dasharray="1, 2" points="
  293.436,364.188 293.436,9.42306 
  "/>
<polyline clip-path="url(#clip02)" style="stroke:#00002d; stroke-width:0.8; stroke-opacity:0.5; fill:none" stroke-dasharray="1, 2" points="
  415.552,364.188 415.552,9.42306 
  "/>
<polyline clip-path="url(#clip02)" style="stroke:#00002d; stroke-width:0.8; stroke-opacity:0.5; fill:none" stroke-dasharray="1, 2" points="
  537.668,364.188 537.668,9.42306 
  "/>
<polyline clip-path="url(#clip02)" style="stroke:#00002d; stroke-width:0.8; stroke-opacity:0.5; fill:none" stroke-dasharray="1, 2" points="
  45.3786,300.118 587.677,300.118 
  "/>
<polyline clip-path="url(#clip02)" style="stroke:#00002d; stroke-width:0.8; stroke-opacity:0.5; fill:none" stroke-dasharray="1, 2" points="
  45.3786,230.387 587.677,230.387 
  "/>
<polyline clip-path="url(#clip02)" style="stroke:#00002d; stroke-width:0.8; stroke-opacity:0.5; fill:none" stroke-dasharray="1, 2" points="
  45.3786,160.657 587.677,160.657 
  "/>
<polyline clip-path="url(#clip02)" style="stroke:#00002d; stroke-width:0.8; stroke-opacity:0.5; fill:none" stroke-dasharray="1, 2" points="
  45.3786,90.926 587.677,90.926 
  "/>
<polyline clip-path="url(#clip02)" style="stroke:#00002d; stroke-width:0.8; stroke-opacity:0.5; fill:none" stroke-dasharray="1, 2" points="
  45.3786,21.1953 587.677,21.1953 
  "/>
<polyline clip-path="url(#clip02)" style="stroke:#00002d; stroke-width:0.8; stroke-opacity:1; fill:none" points="
  36.9926,369.674 596.063,369.674 
  "/>
<polyline clip-path="url(#clip02)" style="stroke:#00002d; stroke-width:0.8; stroke-opacity:1; fill:none" points="
  49.2042,369.674 49.2042,364.188 
  "/>
<polyline clip-path="url(#clip02)" style="stroke:#00002d; stroke-width:0.8; stroke-opacity:1; fill:none" points="
  171.32,369.674 171.32,364.188 
  "/>
<polyline clip-path="url(#clip02)" style="stroke:#00002d; stroke-width:0.8; stroke-opacity:1; fill:none" points="
  293.436,369.674 293.436,364.188 
  "/>
<polyline clip-path="url(#clip02)" style="stroke:#00002d; stroke-width:0.8; stroke-opacity:1; fill:none" points="
  415.552,369.674 415.552,364.188 
  "/>
<polyline clip-path="url(#clip02)" style="stroke:#00002d; stroke-width:0.8; stroke-opacity:1; fill:none" points="
  537.668,369.674 537.668,364.188 
  "/>
<polyline clip-path="url(#clip02)" style="stroke:#00002d; stroke-width:0.8; stroke-opacity:1; fill:none" points="
  36.9926,369.674 36.9926,3.93701 
  "/>
<polyline clip-path="url(#clip02)" style="stroke:#00002d; stroke-width:0.8; stroke-opacity:1; fill:none" points="
  36.9926,300.118 45.3786,300.118 
  "/>
<polyline clip-path="url(#clip02)" style="stroke:#00002d; stroke-width:0.8; stroke-opacity:1; fill:none" points="
  36.9926,230.387 45.3786,230.387 
  "/>
<polyline clip-path="url(#clip02)" style="stroke:#00002d; stroke-width:0.8; stroke-opacity:1; fill:none" points="
  36.9926,160.657 45.3786,160.657 
  "/>
<polyline clip-path="url(#clip02)" style="stroke:#00002d; stroke-width:0.8; stroke-opacity:1; fill:none" points="
  36.9926,90.926 45.3786,90.926 
  "/>
<polyline clip-path="url(#clip02)" style="stroke:#00002d; stroke-width:0.8; stroke-opacity:1; fill:none" points="
  36.9926,21.1953 45.3786,21.1953 
  "/>
<g clip-path="url(#clip00)">
<text style="fill:#00002d; fill-opacity:1; font-family:Arial,Helvetica Neue,Helvetica,sans-serif; font-size:12; text-anchor:middle;" transform="rotate(0, 49.2042, 381.674)" x="49.2042" y="381.674">0</text>
</g>
<g clip-path="url(#clip00)">
<text style="fill:#00002d; fill-opacity:1; font-family:Arial,Helvetica Neue,Helvetica,sans-serif; font-size:12; text-anchor:middle;" transform="rotate(0, 171.32, 381.674)" x="171.32" y="381.674">1</text>
</g>
<g clip-path="url(#clip00)">
<text style="fill:#00002d; fill-opacity:1; font-family:Arial,Helvetica Neue,Helvetica,sans-serif; font-size:12; text-anchor:middle;" transform="rotate(0, 293.436, 381.674)" x="293.436" y="381.674">2</text>
</g>
<g clip-path="url(#clip00)">
<text style="fill:#00002d; fill-opacity:1; font-family:Arial,Helvetica Neue,Helvetica,sans-serif; font-size:12; text-anchor:middle;" transform="rotate(0, 415.552, 381.674)" x="415.552" y="381.674">3</text>
</g>
<g clip-path="url(#clip00)">
<text style="fill:#00002d; fill-opacity:1; font-family:Arial,Helvetica Neue,Helvetica,sans-serif; font-size:12; text-anchor:middle;" transform="rotate(0, 537.668, 381.674)" x="537.668" y="381.674">4</text>
</g>
<g clip-path="url(#clip00)">
<text style="fill:#00002d; fill-opacity:1; font-family:Arial,Helvetica Neue,Helvetica,sans-serif; font-size:12; text-anchor:end;" transform="rotate(0, 35.7926, 304.618)" x="35.7926" y="304.618">2</text>
</g>
<g clip-path="url(#clip00)">
<text style="fill:#00002d; fill-opacity:1; font-family:Arial,Helvetica Neue,Helvetica,sans-serif; font-size:12; text-anchor:end;" transform="rotate(0, 35.7926, 234.887)" x="35.7926" y="234.887">4</text>
</g>
<g clip-path="url(#clip00)">
<text style="fill:#00002d; fill-opacity:1; font-family:Arial,Helvetica Neue,Helvetica,sans-serif; font-size:12; text-anchor:end;" transform="rotate(0, 35.7926, 165.157)" x="35.7926" y="165.157">6</text>
</g>
<g clip-path="url(#clip00)">
<text style="fill:#00002d; fill-opacity:1; font-family:Arial,Helvetica Neue,Helvetica,sans-serif; font-size:12; text-anchor:end;" transform="rotate(0, 35.7926, 95.426)" x="35.7926" y="95.426">8</text>
</g>
<g clip-path="url(#clip00)">
<text style="fill:#00002d; fill-opacity:1; font-family:Arial,Helvetica Neue,Helvetica,sans-serif; font-size:12; text-anchor:end;" transform="rotate(0, 35.7926, 25.6953)" x="35.7926" y="25.6953">10</text>
</g>
<g clip-path="url(#clip00)">
<text style="fill:#00002d; fill-opacity:1; font-family:Arial,Helvetica Neue,Helvetica,sans-serif; font-size:16; text-anchor:middle;" transform="rotate(0, 316.528, 397.6)" x="316.528" y="397.6">time (s)</text>
</g>
<g clip-path="url(#clip00)">
<text style="fill:#00002d; fill-opacity:1; font-family:Arial,Helvetica Neue,Helvetica,sans-serif; font-size:16; text-anchor:middle;" transform="rotate(-90, 14.4, 186.806)" x="14.4" y="186.806">h(t)</text>
</g>
<polyline clip-path="url(#clip02)" style="stroke:#0099ff; stroke-width:2.4; stroke-opacity:1; fill:none" points="
  49.2042,24.6819 66.9952,34.9343 102.212,58.7752 141.26,90.7192 169.232,117.164 176.501,124.523 194.292,143.51 229.509,182.922 268.557,223.283 296.529,248.517 
  303.798,254.919 330.828,276.637 378.971,309.502 419.818,331.543 431.095,336.684 443.638,341.922 469.862,351.238 502.639,359.774 533.186,364.621 553.324,366.176 
  558.392,366.362 
  "/>
<polygon clip-path="url(#clip00)" points="
495.675,55.057 578.063,55.057 578.063,24.817 495.675,24.817 
  " fill="#ffffff" fill-opacity="1"/>
<polyline clip-path="url(#clip00)" style="stroke:#00002d; stroke-width:0.8; stroke-opacity:1; fill:none" points="
  495.675,55.057 578.063,55.057 578.063,24.817 495.675,24.817 495.675,55.057 
  "/>
<polyline clip-path="url(#clip00)" style="stroke:#0099ff; stroke-width:2.4; stroke-opacity:1; fill:none" points="
  501.675,39.937 537.675,39.937 
  "/>
<g clip-path="url(#clip00)">
<text style="fill:#00002d; fill-opacity:1; font-family:Arial,Helvetica Neue,Helvetica,sans-serif; font-size:12; text-anchor:start;" transform="rotate(0, 543.675, 44.437)" x="543.675" y="44.437">mpc</text>
</g>
</svg>
