<?xml version="1.0" encoding="utf-8"?>
<svg xmlns="http://www.w3.org/2000/svg" xmlns:xlink="http://www.w3.org/1999/xlink" width="700" height="700" viewBox="0 0 700 700">
<defs>
  <clipPath id="clip00">
    <rect x="0" y="0" width="700" height="700"/>
  </clipPath>
</defs>
<polygon clip-path="url(#clip00)" points="
0,700 700,700 700,0 0,0 
  " fill="#ffffff" fill-opacity="1"/>
<defs>
  <clipPath id="clip01">
    <rect x="140" y="70" width="491" height="491"/>
  </clipPath>
</defs>
<polygon clip-path="url(#clip00)" points="
36.9926,319.674 346.063,319.674 346.063,3.93701 36.9926,3.93701 
  " fill="#ffffff" fill-opacity="1"/>
<defs>
  <clipPath id="clip02">
    <rect x="36" y="3" width="310" height="316"/>
  </clipPath>
</defs>
<polyline clip-path="url(#clip02)" style="stroke:#00002d; stroke-width:1.4; stroke-opacity:0.5; fill:none" stroke-dasharray="1, 2" points="
  43.7435,314.938 43.7435,8.67306 
  "/>
<polyline clip-path="url(#clip02)" style="stroke:#00002d; stroke-width:1.4; stroke-opacity:0.5; fill:none" stroke-dasharray="1, 2" points="
  111.253,314.938 111.253,8.67306 
  "/>
<polyline clip-path="url(#clip02)" style="stroke:#00002d; stroke-width:1.4; stroke-opacity:0.5; fill:none" stroke-dasharray="1, 2" points="
  178.762,314.938 178.762,8.67306 
  "/>
<polyline clip-path="url(#clip02)" style="stroke:#00002d; stroke-width:1.4; stroke-opacity:0.5; fill:none" stroke-dasharray="1, 2" points="
  246.271,314.938 246.271,8.67306 
  "/>
<polyline clip-path="url(#clip02)" style="stroke:#00002d; stroke-width:1.4; stroke-opacity:0.5; fill:none" stroke-dasharray="1, 2" points="
  313.78,314.938 313.78,8.67306 
  "/>
<polyline clip-path="url(#clip02)" style="stroke:#00002d; stroke-width:1.4; stroke-opacity:0.5; fill:none" stroke-dasharray="1, 2" points="
  41.6286,259.627 341.427,259.627 
  "/>
<polyline clip-path="url(#clip02)" style="stroke:#00002d; stroke-width:1.4; stroke-opacity:0.5; fill:none" stroke-dasharray="1, 2" points="
  41.6286,199.429 341.427,199.429 
  "/>
<polyline clip-path="url(#clip02)" style="stroke:#00002d; stroke-width:1.4; stroke-opacity:0.5; fill:none" stroke-dasharray="1, 2" points="
  41.6286,139.231 341.427,139.231 
  "/>
<polyline clip-path="url(#clip02)" style="stroke:#00002d; stroke-width:1.4; stroke-opacity:0.5; fill:none" stroke-dasharray="1, 2" points="
  41.6286,79.0337 341.427,79.0337 
  "/>
<polyline clip-path="url(#clip02)" style="stroke:#00002d; stroke-width:1.4; stroke-opacity:0.5; fill:none" stroke-dasharray="1, 2" points="
  41.6286,18.8359 341.427,18.8359 
  "/>
<polyline clip-path="url(#clip02)" style="stroke:#00002d; stroke-width:1.4; stroke-opacity:1; fill:none" points="
  36.9926,319.674 346.063,319.674 
  "/>
<polyline clip-path="url(#clip02)" style="stroke:#00002d; stroke-width:1.4; stroke-opacity:1; fill:none" points="
  43.7435,319.674 43.7435,314.938 
  "/>
<polyline clip-path="url(#clip02)" style="stroke:#00002d; stroke-width:1.4; stroke-opacity:1; fill:none" points="
  111.253,319.674 111.253,314.938 
  "/>
<polyline clip-path="url(#clip02)" style="stroke:#00002d; stroke-width:1.4; stroke-opacity:1; fill:none" points="
  178.762,319.674 178.762,314.938 
  "/>
<polyline clip-path="url(#clip02)" style="stroke:#00002d; stroke-width:1.4; stroke-opacity:1; fill:none" points="
  246.271,319.674 246.271,314.938 
  "/>
<polyline clip-path="url(#clip02)" style="stroke:#00002d; stroke-width:1.4; stroke-opacity:1; fill:none" points="
  313.78,319.674 313.78,314.938 
  "/>
<polyline clip-path="url(#clip02)" style="stroke:#00002d; stroke-width:1.4; stroke-opacity:1; fill:none" points="
  36.9926,319.674 36.9926,3.93701 
  "/>
<polyline clip-path="url(#clip02)" style="stroke:#00002d; stroke-width:1.4; stroke-opacity:1; fill:none" points="
  36.9926,259.627 41.6286,259.627 
  "/>
<polyline clip-path="url(#clip02)" style="stroke:#00002d; stroke-width:1.4; stroke-opacity:1; fill:none" points="
  36.9926,199.429 41.6286,199.429 
  "/>
<polyline clip-path="url(#clip02)" style="stroke:#00002d; stroke-width:1.4; stroke-opacity:1; fill:none" points="
  36.9926,139.231 41.6286,139.231 
  "/>
<polyline clip-path="url(#clip02)" style="stroke:#00002d; stroke-width:1.4; stroke-opacity:1; fill:none" points="
  36.9926,79.0337 41.6286,79.0337 
  "/>
<polyline clip-path="url(#clip02)" style="stroke:#00002d; stroke-width:1.4; stroke-opacity:1; fill:none" points="
  36.9926,18.8359 41.6286,18.8359 
  "/>
<g clip-path="url(#clip00)">
<text style="fill:#00002d; fill-opacity:1; font-family:Arial,Helvetica Neue,Helvetica,sans-serif; font-size:12; text-anchor:middle;" transform="rotate(0, 43.7435, 331.874)" x="43.7435" y="331.874">0</text>
</g>
<g clip-path="url(#clip00)">
<text style="fill:#00002d; fill-opacity:1; font-family:Arial,Helvetica Neue,Helvetica,sans-serif; font-size:12; text-anchor:middle;" transform="rotate(0, 111.253, 331.874)" x="111.253" y="331.874">1</text>
</g>
<g clip-path="url(#clip00)">
<text style="fill:#00002d; fill-opacity:1; font-family:Arial,Helvetica Neue,Helvetica,sans-serif; font-size:12; text-anchor:middle;" transform="rotate(0, 178.762, 331.874)" x="178.762" y="331.874">2</text>
</g>
<g clip-path="url(#clip00)">
<text style="fill:#00002d; fill-opacity:1; font-family:Arial,Helvetica Neue,Helvetica,sans-serif; font-size:12; text-anchor:middle;" transform="rotate(0, 246.271, 331.874)" x="246.271" y="331.874">3</text>
</g>
<g clip-path="url(#clip00)">
<text style="fill:#00002d; fill-opacity:1; font-family:Arial,Helvetica Neue,Helvetica,sans-serif; font-size:12; text-anchor:middle;" transform="rotate(0, 313.78, 331.874)" x="313.78" y="331.874">4</text>
</g>
<g clip-path="url(#clip00)">
<text style="fill:#00002d; fill-opacity:1; font-family:Arial,Helvetica Neue,Helvetica,sans-serif; font-size:12; text-anchor:end;" transform="rotate(0, 35.5926, 264.127)" x="35.5926" y="264.127">2</text>
</g>
<g clip-path="url(#clip00)">
<text style="fill:#00002d; fill-opacity:1; font-family:Arial,Helvetica Neue,Helvetica,sans-serif; font-size:12; text-anchor:end;" transform="rotate(0, 35.5926, 203.929)" x="35.5926" y="203.929">4</text>
</g>
<g clip-path="url(#clip00)">
<text style="fill:#00002d; fill-opacity:1; font-family:Arial,Helvetica Neue,Helvetica,sans-serif; font-size:12; text-anchor:end;" transform="rotate(0, 35.5926, 143.731)" x="35.5926" y="143.731">6</text>
</g>
<g clip-path="url(#clip00)">
<text style="fill:#00002d; fill-opacity:1; font-family:Arial,Helvetica Neue,Helvetica,sans-serif; font-size:12; text-anchor:end;" transform="rotate(0, 35.5926, 83.5337)" x="35.5926" y="83.5337">8</text>
</g>
<g clip-path="url(#clip00)">
<text style="fill:#00002d; fill-opacity:1; font-family:Arial,Helvetica Neue,Helvetica,sans-serif; font-size:12; text-anchor:end;" transform="rotate(0, 35.5926, 23.3359)" x="35.5926" y="23.3359">10</text>
</g>
<g clip-path="url(#clip00)">
<text style="fill:#00002d; fill-opacity:1; font-family:Arial,Helvetica Neue,Helvetica,sans-serif; font-size:16; text-anchor:middle;" transform="rotate(0, 191.528, 347.6)" x="191.528" y="347.6">time (s)</text>
</g>
<g clip-path="url(#clip00)">
<text style="fill:#00002d; fill-opacity:1; font-family:Arial,Helvetica Neue,Helvetica,sans-serif; font-size:16; text-anchor:middle;" transform="rotate(-90, 14.4, 161.806)" x="14.4" y="161.806">h(t)</text>
</g>
<polyline clip-path="url(#clip02)" style="stroke:#0099ff; stroke-width:4.2; stroke-opacity:1; fill:none" points="
  43.7435,21.8458 53.5789,30.6966 73.0477,51.2782 94.6346,78.8551 110.098,101.685 114.117,108.038 123.952,124.429 143.421,158.453 165.008,193.296 180.472,215.08 
  184.49,220.608 199.434,239.356 226.048,267.728 248.63,286.756 254.864,291.194 261.798,295.716 276.295,303.758 294.416,311.128 311.302,315.312 322.436,316.654 
  325.237,316.815 
  "/>
<polygon clip-path="url(#clip00)" points="
232.675,61.057 325.063,61.057 325.063,30.817 232.675,30.817 
  " fill="#ffffff" fill-opacity="1"/>
<polyline clip-path="url(#clip00)" style="stroke:#00002d; stroke-width:1.4; stroke-opacity:1; fill:none" points="
  232.675,61.057 325.063,61.057 325.063,30.817 232.675,30.817 232.675,61.057 
  "/>
<polyline clip-path="url(#clip00)" style="stroke:#0099ff; stroke-width:4.2; stroke-opacity:1; fill:none" points="
  239.675,45.937 281.675,45.937 
  "/>
<g clip-path="url(#clip00)">
<text style="fill:#00002d; fill-opacity:1; font-family:Arial,Helvetica Neue,Helvetica,sans-serif; font-size:12; text-anchor:start;" transform="rotate(0, 288.675, 50.437)" x="288.675" y="50.437">mpc</text>
</g>
<polygon clip-path="url(#clip00)" points="
386.993,319.674 696.063,319.674 696.063,3.93701 386.993,3.93701 
  " fill="#ffffff" fill-opacity="1"/>
<defs>
  <clipPath id="clip03">
    <rect x="386" y="3" width="310" height="316"/>
  </clipPath>
</defs>
<polyline clip-path="url(#clip03)" style="stroke:#00002d; stroke-width:1.4; stroke-opacity:0.5; fill:none" stroke-dasharray="1, 2" points="
  393.743,314.938 393.743,8.67306 
  "/>
<polyline clip-path="url(#clip03)" style="stroke:#00002d; stroke-width:1.4; stroke-opacity:0.5; fill:none" stroke-dasharray="1, 2" points="
  461.253,314.938 461.253,8.67306 
  "/>
<polyline clip-path="url(#clip03)" style="stroke:#00002d; stroke-width:1.4; stroke-opacity:0.5; fill:none" stroke-dasharray="1, 2" points="
  528.762,314.938 528.762,8.67306 
  "/>
<polyline clip-path="url(#clip03)" style="stroke:#00002d; stroke-width:1.4; stroke-opacity:0.5; fill:none" stroke-dasharray="1, 2" points="
  596.271,314.938 596.271,8.67306 
  "/>
<polyline clip-path="url(#clip03)" style="stroke:#00002d; stroke-width:1.4; stroke-opacity:0.5; fill:none" stroke-dasharray="1, 2" points="
  663.78,314.938 663.78,8.67306 
  "/>
<polyline clip-path="url(#clip03)" style="stroke:#00002d; stroke-width:1.4; stroke-opacity:0.5; fill:none" stroke-dasharray="1, 2" points="
  391.629,254.715 691.427,254.715 
  "/>
<polyline clip-path="url(#clip03)" style="stroke:#00002d; stroke-width:1.4; stroke-opacity:0.5; fill:none" stroke-dasharray="1, 2" points="
  391.629,171.262 691.427,171.262 
  "/>
<polyline clip-path="url(#clip03)" style="stroke:#00002d; stroke-width:1.4; stroke-opacity:0.5; fill:none" stroke-dasharray="1, 2" points="
  391.629,87.8079 691.427,87.8079 
  "/>
<polyline clip-path="url(#clip03)" style="stroke:#00002d; stroke-width:1.4; stroke-opacity:0.5; fill:none" stroke-dasharray="1, 2" points="
  391.629,4.35428 691.427,4.35428 
  "/>
<polyline clip-path="url(#clip03)" style="stroke:#00002d; stroke-width:1.4; stroke-opacity:1; fill:none" points="
  386.993,319.674 696.063,319.674 
  "/>
<polyline clip-path="url(#clip03)" style="stroke:#00002d; stroke-width:1.4; stroke-opacity:1; fill:none" points="
  393.743,319.674 393.743,314.938 
  "/>
<polyline clip-path="url(#clip03)" style="stroke:#00002d; stroke-width:1.4; stroke-opacity:1; fill:none" points="
  461.253,319.674 461.253,314.938 
  "/>
<polyline clip-path="url(#clip03)" style="stroke:#00002d; stroke-width:1.4; stroke-opacity:1; fill:none" points="
  528.762,319.674 528.762,314.938 
  "/>
<polyline clip-path="url(#clip03)" style="stroke:#00002d; stroke-width:1.4; stroke-opacity:1; fill:none" points="
  596.271,319.674 596.271,314.938 
  "/>
<polyline clip-path="url(#clip03)" style="stroke:#00002d; stroke-width:1.4; stroke-opacity:1; fill:none" points="
  663.78,319.674 663.78,314.938 
  "/>
<polyline clip-path="url(#clip03)" style="stroke:#00002d; stroke-width:1.4; stroke-opacity:1; fill:none" points="
  386.993,319.674 386.993,3.93701 
  "/>
<polyline clip-path="url(#clip03)" style="stroke:#00002d; stroke-width:1.4; stroke-opacity:1; fill:none" points="
  386.993,254.715 391.629,254.715 
  "/>
<polyline clip-path="url(#clip03)" style="stroke:#00002d; stroke-width:1.4; stroke-opacity:1; fill:none" points="
  386.993,171.262 391.629,171.262 
  "/>
<polyline clip-path="url(#clip03)" style="stroke:#00002d; stroke-width:1.4; stroke-opacity:1; fill:none" points="
  386.993,87.8079 391.629,87.8079 
  "/>
<polyline clip-path="url(#clip03)" style="stroke:#00002d; stroke-width:1.4; stroke-opacity:1; fill:none" points="
  386.993,4.35428 391.629,4.35428 
  "/>
<g clip-path="url(#clip00)">
<text style="fill:#00002d; fill-opacity:1; font-family:Arial,Helvetica Neue,Helvetica,sans-serif; font-size:12; text-anchor:middle;" transform="rotate(0, 393.743, 331.874)" x="393.743" y="331.874">0</text>
</g>
<g clip-path="url(#clip00)">
<text style="fill:#00002d; fill-opacity:1; font-family:Arial,Helvetica Neue,Helvetica,sans-serif; font-size:12; text-anchor:middle;" transform="rotate(0, 461.253, 331.874)" x="461.253" y="331.874">1</text>
</g>
<g clip-path="url(#clip00)">
<text style="fill:#00002d; fill-opacity:1; font-family:Arial,Helvetica Neue,Helvetica,sans-serif; font-size:12; text-anchor:middle;" transform="rotate(0, 528.762, 331.874)" x="528.762" y="331.874">2</text>
</g>
<g clip-path="url(#clip00)">
<text style="fill:#00002d; fill-opacity:1; font-family:Arial,Helvetica Neue,Helvetica,sans-serif; font-size:12; text-anchor:middle;" transform="rotate(0, 596.271, 331.874)" x="596.271" y="331.874">3</text>
</g>
<g clip-path="url(#clip00)">
<text style="fill:#00002d; fill-opacity:1; font-family:Arial,Helvetica Neue,Helvetica,sans-serif; font-size:12; text-anchor:middle;" transform="rotate(0, 663.78, 331.874)" x="663.78" y="331.874">4</text>
</g>
<g clip-path="url(#clip00)">
<text style="fill:#00002d; fill-opacity:1; font-family:Arial,Helvetica Neue,Helvetica,sans-serif; font-size:12; text-anchor:end;" transform="rotate(0, 385.593, 259.215)" x="385.593" y="259.215">-3</text>
</g>
<g clip-path="url(#clip00)">
<text style="fill:#00002d; fill-opacity:1; font-family:Arial,Helvetica Neue,Helvetica,sans-serif; font-size:12; text-anchor:end;" transform="rotate(0, 385.593, 175.762)" x="385.593" y="175.762">-2</text>
</g>
<g clip-path="url(#clip00)">
<text style="fill:#00002d; fill-opacity:1; font-family:Arial,Helvetica Neue,Helvetica,sans-serif; font-size:12; text-anchor:end;" transform="rotate(0, 385.593, 92.3079)" x="385.593" y="92.3079">-1</text>
</g>
<g clip-path="url(#clip00)">
<text style="fill:#00002d; fill-opacity:1; font-family:Arial,Helvetica Neue,Helvetica,sans-serif; font-size:12; text-anchor:end;" transform="rotate(0, 385.593, 8.85428)" x="385.593" y="8.85428">0</text>
</g>
<g clip-path="url(#clip00)">
<text style="fill:#00002d; fill-opacity:1; font-family:Arial,Helvetica Neue,Helvetica,sans-serif; font-size:16; text-anchor:middle;" transform="rotate(0, 541.528, 347.6)" x="541.528" y="347.6">time (s)</text>
</g>
<g clip-path="url(#clip00)">
<text style="fill:#00002d; fill-opacity:1; font-family:Arial,Helvetica Neue,Helvetica,sans-serif; font-size:16; text-anchor:middle;" transform="rotate(-90, 364.4, 161.806)" x="364.4" y="161.806">v(t)</text>
</g>
<polyline clip-path="url(#clip03)" style="stroke:#0099ff; stroke-width:4.2; stroke-opacity:1; fill:none" points="
  393.743,162.916 403.579,182.676 423.048,221.789 444.635,265.158 460.098,296.225 464.117,304.299 473.952,326.127 493.421,327.485 515.008,281.68 530.472,260.691 
  534.49,251.901 549.434,226.505 576.048,181.273 598.63,142.896 604.864,132.3 611.798,120.515 626.295,95.8777 644.416,65.0817 661.302,36.3822 672.436,17.4609 
  675.237,12.6996 
  "/>
<polygon clip-path="url(#clip00)" points="
582.675,61.057 675.063,61.057 675.063,30.817 582.675,30.817 
  " fill="#ffffff" fill-opacity="1"/>
<polyline clip-path="url(#clip00)" style="stroke:#00002d; stroke-width:1.4; stroke-opacity:1; fill:none" points="
  582.675,61.057 675.063,61.057 675.063,30.817 582.675,30.817 582.675,61.057 
  "/>
<polyline clip-path="url(#clip00)" style="stroke:#0099ff; stroke-width:4.2; stroke-opacity:1; fill:none" points="
  589.675,45.937 631.675,45.937 
  "/>
<g clip-path="url(#clip00)">
<text style="fill:#00002d; fill-opacity:1; font-family:Arial,Helvetica Neue,Helvetica,sans-serif; font-size:12; text-anchor:start;" transform="rotate(0, 638.675, 50.437)" x="638.675" y="50.437">mpc</text>
</g>
<polygon clip-path="url(#clip00)" points="
36.9926,669.674 346.063,669.674 346.063,353.937 36.9926,353.937 
  " fill="#ffffff" fill-opacity="1"/>
<defs>
  <clipPath id="clip04">
    <rect x="36" y="353" width="310" height="316"/>
  </clipPath>
</defs>
<polyline clip-path="url(#clip04)" style="stroke:#00002d; stroke-width:1.4; stroke-opacity:0.5; fill:none" stroke-dasharray="1, 2" points="
  43.7435,664.938 43.7435,358.673 
  "/>
<polyline clip-path="url(#clip04)" style="stroke:#00002d; stroke-width:1.4; stroke-opacity:0.5; fill:none" stroke-dasharray="1, 2" points="
  111.253,664.938 111.253,358.673 
  "/>
<polyline clip-path="url(#clip04)" style="stroke:#00002d; stroke-width:1.4; stroke-opacity:0.5; fill:none" stroke-dasharray="1, 2" points="
  178.762,664.938 178.762,358.673 
  "/>
<polyline clip-path="url(#clip04)" style="stroke:#00002d; stroke-width:1.4; stroke-opacity:0.5; fill:none" stroke-dasharray="1, 2" points="
  246.271,664.938 246.271,358.673 
  "/>
<polyline clip-path="url(#clip04)" style="stroke:#00002d; stroke-width:1.4; stroke-opacity:0.5; fill:none" stroke-dasharray="1, 2" points="
  313.78,664.938 313.78,358.673 
  "/>
<polyline clip-path="url(#clip04)" style="stroke:#00002d; stroke-width:1.4; stroke-opacity:0.5; fill:none" stroke-dasharray="1, 2" points="
  41.6286,660.249 341.427,660.249 
  "/>
<polyline clip-path="url(#clip04)" style="stroke:#00002d; stroke-width:1.4; stroke-opacity:0.5; fill:none" stroke-dasharray="1, 2" points="
  41.6286,565.999 341.427,565.999 
  "/>
<polyline clip-path="url(#clip04)" style="stroke:#00002d; stroke-width:1.4; stroke-opacity:0.5; fill:none" stroke-dasharray="1, 2" points="
  41.6286,471.749 341.427,471.749 
  "/>
<polyline clip-path="url(#clip04)" style="stroke:#00002d; stroke-width:1.4; stroke-opacity:0.5; fill:none" stroke-dasharray="1, 2" points="
  41.6286,377.499 341.427,377.499 
  "/>
<polyline clip-path="url(#clip04)" style="stroke:#00002d; stroke-width:1.4; stroke-opacity:1; fill:none" points="
  36.9926,669.674 346.063,669.674 
  "/>
<polyline clip-path="url(#clip04)" style="stroke:#00002d; stroke-width:1.4; stroke-opacity:1; fill:none" points="
  43.7435,669.674 43.7435,664.938 
  "/>
<polyline clip-path="url(#clip04)" style="stroke:#00002d; stroke-width:1.4; stroke-opacity:1; fill:none" points="
  111.253,669.674 111.253,664.938 
  "/>
<polyline clip-path="url(#clip04)" style="stroke:#00002d; stroke-width:1.4; stroke-opacity:1; fill:none" points="
  178.762,669.674 178.762,664.938 
  "/>
<polyline clip-path="url(#clip04)" style="stroke:#00002d; stroke-width:1.4; stroke-opacity:1; fill:none" points="
  246.271,669.674 246.271,664.938 
  "/>
<polyline clip-path="url(#clip04)" style="stroke:#00002d; stroke-width:1.4; stroke-opacity:1; fill:none" points="
  313.78,669.674 313.78,664.938 
  "/>
<polyline clip-path="url(#clip04)" style="stroke:#00002d; stroke-width:1.4; stroke-opacity:1; fill:none" points="
  36.9926,669.674 36.9926,353.937 
  "/>
<polyline clip-path="url(#clip04)" style="stroke:#00002d; stroke-width:1.4; stroke-opacity:1; fill:none" points="
  36.9926,660.249 41.6286,660.249 
  "/>
<polyline clip-path="url(#clip04)" style="stroke:#00002d; stroke-width:1.4; stroke-opacity:1; fill:none" points="
  36.9926,565.999 41.6286,565.999 
  "/>
<polyline clip-path="url(#clip04)" style="stroke:#00002d; stroke-width:1.4; stroke-opacity:1; fill:none" points="
  36.9926,471.749 41.6286,471.749 
  "/>
<polyline clip-path="url(#clip04)" style="stroke:#00002d; stroke-width:1.4; stroke-opacity:1; fill:none" points="
  36.9926,377.499 41.6286,377.499 
  "/>
<g clip-path="url(#clip00)">
<text style="fill:#00002d; fill-opacity:1; font-family:Arial,Helvetica Neue,Helvetica,sans-serif; font-size:12; text-anchor:middle;" transform="rotate(0, 43.7435, 681.874)" x="43.7435" y="681.874">0</text>
</g>
<g clip-path="url(#clip00)">
<text style="fill:#00002d; fill-opacity:1; font-family:Arial,Helvetica Neue,Helvetica,sans-serif; font-size:12; text-anchor:middle;" transform="rotate(0, 111.253, 681.874)" x="111.253" y="681.874">1</text>
</g>
<g clip-path="url(#clip00)">
<text style="fill:#00002d; fill-opacity:1; font-family:Arial,Helvetica Neue,Helvetica,sans-serif; font-size:12; text-anchor:middle;" transform="rotate(0, 178.762, 681.874)" x="178.762" y="681.874">2</text>
</g>
<g clip-path="url(#clip00)">
<text style="fill:#00002d; fill-opacity:1; font-family:Arial,Helvetica Neue,Helvetica,sans-serif; font-size:12; text-anchor:middle;" transform="rotate(0, 246.271, 681.874)" x="246.271" y="681.874">3</text>
</g>
<g clip-path="url(#clip00)">
<text style="fill:#00002d; fill-opacity:1; font-family:Arial,Helvetica Neue,Helvetica,sans-serif; font-size:12; text-anchor:middle;" transform="rotate(0, 313.78, 681.874)" x="313.78" y="681.874">4</text>
</g>
<g clip-path="url(#clip00)">
<text style="fill:#00002d; fill-opacity:1; font-family:Arial,Helvetica Neue,Helvetica,sans-serif; font-size:12; text-anchor:end;" transform="rotate(0, 35.5926, 664.749)" x="35.5926" y="664.749">0</text>
</g>
<g clip-path="url(#clip00)">
<text style="fill:#00002d; fill-opacity:1; font-family:Arial,Helvetica Neue,Helvetica,sans-serif; font-size:12; text-anchor:end;" transform="rotate(0, 35.5926, 570.499)" x="35.5926" y="570.499">1</text>
</g>
<g clip-path="url(#clip00)">
<text style="fill:#00002d; fill-opacity:1; font-family:Arial,Helvetica Neue,Helvetica,sans-serif; font-size:12; text-anchor:end;" transform="rotate(0, 35.5926, 476.249)" x="35.5926" y="476.249">2</text>
</g>
<g clip-path="url(#clip00)">
<text style="fill:#00002d; fill-opacity:1; font-family:Arial,Helvetica Neue,Helvetica,sans-serif; font-size:12; text-anchor:end;" transform="rotate(0, 35.5926, 381.999)" x="35.5926" y="381.999">3</text>
</g>
<g clip-path="url(#clip00)">
<text style="fill:#00002d; fill-opacity:1; font-family:Arial,Helvetica Neue,Helvetica,sans-serif; font-size:16; text-anchor:middle;" transform="rotate(0, 191.528, 697.6)" x="191.528" y="697.6">time (s)</text>
</g>
<g clip-path="url(#clip00)">
<text style="fill:#00002d; fill-opacity:1; font-family:Arial,Helvetica Neue,Helvetica,sans-serif; font-size:16; text-anchor:middle;" transform="rotate(-90, 14.4, 511.806)" x="14.4" y="511.806">u1</text>
</g>
<polyline clip-path="url(#clip04)" style="stroke:#0099ff; stroke-width:7.7; stroke-opacity:1; fill:none" points="
  43.7435,660.249 46.5869,660.249 49.4302,660.249 52.2736,660.249 55.117,660.249 57.9604,660.249 60.8037,660.249 63.6471,660.249 66.4905,660.249 69.3338,660.249 
  72.1772,660.249 75.0206,660.249 77.864,660.249 80.7073,660.249 83.5507,660.249 86.3941,660.249 89.2374,660.249 92.0808,660.249 94.9242,660.249 97.7676,660.249 
  100.611,660.249 103.454,660.249 106.298,660.249 109.141,660.249 111.984,660.249 114.828,660.249 117.671,660.249 120.515,660.249 123.358,660.249 126.201,660.249 
  129.045,660.249 131.888,660.249 134.731,660.249 137.575,660.249 140.418,660.249 143.262,660.249 146.105,660.249 148.948,660.249 151.792,660.249 154.635,660.249 
  157.478,660.249 160.322,660.249 163.165,660.249 166.009,660.249 168.852,660.249 171.695,660.249 174.539,660.249 177.382,660.249 180.225,660.249 183.069,660.249 
  185.912,660.249 188.755,660.249 191.599,660.249 194.442,660.249 197.286,660.249 200.129,660.249 202.972,660.249 205.816,660.249 208.659,660.249 211.502,660.249 
  214.346,660.249 217.189,660.249 220.033,660.249 222.876,660.249 225.719,660.249 228.563,660.249 231.406,660.249 234.249,660.249 237.093,660.249 239.936,660.249 
  242.78,660.249 245.623,660.249 248.466,660.249 251.31,660.249 254.153,660.249 256.996,660.249 259.84,660.249 262.683,660.249 265.527,660.249 268.37,660.249 
  271.213,660.249 274.057,660.249 276.9,660.249 279.743,660.249 282.587,660.249 285.43,660.249 288.274,660.249 291.117,660.249 293.96,660.249 296.804,660.249 
  299.647,660.249 302.49,660.249 305.334,660.249 308.177,660.249 311.021,660.249 313.864,660.249 316.707,660.249 319.551,660.249 322.394,660.249 325.237,660.249 
  
  "/>
<polyline clip-path="url(#clip04)" style="stroke:#e9746a; stroke-width:7.7; stroke-opacity:1; fill:none" points="
  43.7435,377.499 46.5869,377.499 49.4302,377.499 52.2736,377.499 55.117,377.499 57.9604,377.499 60.8037,377.499 63.6471,377.499 66.4905,377.499 69.3338,377.499 
  72.1772,377.499 75.0206,377.499 77.864,377.499 80.7073,377.499 83.5507,377.499 86.3941,377.499 89.2374,377.499 92.0808,377.499 94.9242,377.499 97.7676,377.499 
  100.611,377.499 103.454,377.499 106.298,377.499 109.141,377.499 111.984,377.499 114.828,377.499 117.671,377.499 120.515,377.499 123.358,377.499 126.201,377.499 
  129.045,377.499 131.888,377.499 134.731,377.499 137.575,377.499 140.418,377.499 143.262,377.499 146.105,377.499 148.948,377.499 151.792,377.499 154.635,377.499 
  157.478,377.499 160.322,377.499 163.165,377.499 166.009,377.499 168.852,377.499 171.695,377.499 174.539,377.499 177.382,377.499 180.225,377.499 183.069,377.499 
  185.912,377.499 188.755,377.499 191.599,377.499 194.442,377.499 197.286,377.499 200.129,377.499 202.972,377.499 205.816,377.499 208.659,377.499 211.502,377.499 
  214.346,377.499 217.189,377.499 220.033,377.499 222.876,377.499 225.719,377.499 228.563,377.499 231.406,377.499 234.249,377.499 237.093,377.499 239.936,377.499 
  242.78,377.499 245.623,377.499 248.466,377.499 251.31,377.499 254.153,377.499 256.996,377.499 259.84,377.499 262.683,377.499 265.527,377.499 268.37,377.499 
  271.213,377.499 274.057,377.499 276.9,377.499 279.743,377.499 282.587,377.499 285.43,377.499 288.274,377.499 291.117,377.499 293.96,377.499 296.804,377.499 
  299.647,377.499 302.49,377.499 305.334,377.499 308.177,377.499 311.021,377.499 313.864,377.499 316.707,377.499 319.551,377.499 322.394,377.499 325.237,377.499 
  
  "/>
<polyline clip-path="url(#clip04)" style="stroke:#3cb370; stroke-width:4.2; stroke-opacity:1; fill:none" points="
  43.7435,660.249 53.5789,660.249 73.0477,660.249 94.6346,660.249 110.098,660.249 114.117,660.249 123.952,653.147 143.421,377.499 165.008,377.499 180.472,377.499 
  184.49,377.499 199.434,377.499 226.048,377.499 248.63,377.499 254.864,377.499 261.798,377.499 276.295,377.499 294.416,377.499 311.302,377.499 322.436,377.499 
  325.237,660.249 
  "/>
<polygon clip-path="url(#clip00)" points="
232.675,441.297 325.063,441.297 325.063,380.817 232.675,380.817 
  " fill="#ffffff" fill-opacity="1"/>
<polyline clip-path="url(#clip00)" style="stroke:#00002d; stroke-width:1.4; stroke-opacity:1; fill:none" points="
  232.675,441.297 325.063,441.297 325.063,380.817 232.675,380.817 232.675,441.297 
  "/>
<polyline clip-path="url(#clip00)" style="stroke:#0099ff; stroke-width:7.7; stroke-opacity:1; fill:none" points="
  239.675,395.937 281.675,395.937 
  "/>
<g clip-path="url(#clip00)">
<text style="fill:#00002d; fill-opacity:1; font-family:Arial,Helvetica Neue,Helvetica,sans-serif; font-size:12; text-anchor:start;" transform="rotate(0, 288.675, 400.437)" x="288.675" y="400.437">min</text>
</g>
<polyline clip-path="url(#clip00)" style="stroke:#e9746a; stroke-width:7.7; stroke-opacity:1; fill:none" points="
  239.675,411.057 281.675,411.057 
  "/>
<g clip-path="url(#clip00)">
<text style="fill:#00002d; fill-opacity:1; font-family:Arial,Helvetica Neue,Helvetica,sans-serif; font-size:12; text-anchor:start;" transform="rotate(0, 288.675, 415.557)" x="288.675" y="415.557">max</text>
</g>
<polyline clip-path="url(#clip00)" style="stroke:#3cb370; stroke-width:4.2; stroke-opacity:1; fill:none" points="
  239.675,426.177 281.675,426.177 
  "/>
<g clip-path="url(#clip00)">
<text style="fill:#00002d; fill-opacity:1; font-family:Arial,Helvetica Neue,Helvetica,sans-serif; font-size:12; text-anchor:start;" transform="rotate(0, 288.675, 430.677)" x="288.675" y="430.677">mpc</text>
</g>
</svg>
