<?xml version="1.0" encoding="utf-8"?>
<svg xmlns="http://www.w3.org/2000/svg" xmlns:xlink="http://www.w3.org/1999/xlink" width="600" height="400" viewBox="0 0 600 400">
<defs>
  <clipPath id="clip00">
    <rect x="0" y="0" width="600" height="400"/>
  </clipPath>
</defs>
<polygon clip-path="url(#clip00)" points="
0,400 600,400 600,0 0,0 
  " fill="#ffffff" fill-opacity="1"/>
<defs>
  <clipPath id="clip01">
    <rect x="120" y="0" width="421" height="400"/>
  </clipPath>
</defs>
<polygon clip-path="url(#clip00)" points="
28.1037,369.674 596.063,369.674 596.063,3.93701 28.1037,3.93701 
  " fill="#ffffff" fill-opacity="1"/>
<defs>
  <clipPath id="clip02">
    <rect x="28" y="3" width="568" height="366"/>
  </clipPath>
</defs>
<polyline clip-path="url(#clip02)" style="stroke:#00002d; stroke-width:0.8; stroke-opacity:0.5; fill:none" stroke-dasharray="1, 2" points="
  40.5094,364.188 40.5094,9.42306 
  "/>
<polyline clip-path="url(#clip02)" style="stroke:#00002d; stroke-width:0.8; stroke-opacity:0.5; fill:none" stroke-dasharray="1, 2" points="
  164.567,364.188 164.567,9.42306 
  "/>
<polyline clip-path="url(#clip02)" style="stroke:#00002d; stroke-width:0.8; stroke-opacity:0.5; fill:none" stroke-dasharray="1, 2" points="
  288.624,364.188 288.624,9.42306 
  "/>
<polyline clip-path="url(#clip02)" style="stroke:#00002d; stroke-width:0.8; stroke-opacity:0.5; fill:none" stroke-dasharray="1, 2" points="
  412.682,364.188 412.682,9.42306 
  "/>
<polyline clip-path="url(#clip02)" style="stroke:#00002d; stroke-width:0.8; stroke-opacity:0.5; fill:none" stroke-dasharray="1, 2" points="
  536.739,364.188 536.739,9.42306 
  "/>
<polyline clip-path="url(#clip02)" style="stroke:#00002d; stroke-width:0.8; stroke-opacity:0.5; fill:none" stroke-dasharray="1, 2" points="
  36.6231,358.757 587.544,358.757 
  "/>
<polyline clip-path="url(#clip02)" style="stroke:#00002d; stroke-width:0.8; stroke-opacity:0.5; fill:none" stroke-dasharray="1, 2" points="
  36.6231,249.581 587.544,249.581 
  "/>
<polyline clip-path="url(#clip02)" style="stroke:#00002d; stroke-width:0.8; stroke-opacity:0.5; fill:none" stroke-dasharray="1, 2" points="
  36.6231,140.406 587.544,140.406 
  "/>
<polyline clip-path="url(#clip02)" style="stroke:#00002d; stroke-width:0.8; stroke-opacity:0.5; fill:none" stroke-dasharray="1, 2" points="
  36.6231,31.2308 587.544,31.2308 
  "/>
<polyline clip-path="url(#clip02)" style="stroke:#00002d; stroke-width:0.8; stroke-opacity:1; fill:none" points="
  28.1037,369.674 596.063,369.674 
  "/>
<polyline clip-path="url(#clip02)" style="stroke:#00002d; stroke-width:0.8; stroke-opacity:1; fill:none" points="
  40.5094,369.674 40.5094,364.188 
  "/>
<polyline clip-path="url(#clip02)" style="stroke:#00002d; stroke-width:0.8; stroke-opacity:1; fill:none" points="
  164.567,369.674 164.567,364.188 
  "/>
<polyline clip-path="url(#clip02)" style="stroke:#00002d; stroke-width:0.8; stroke-opacity:1; fill:none" points="
  288.624,369.674 288.624,364.188 
  "/>
<polyline clip-path="url(#clip02)" style="stroke:#00002d; stroke-width:0.8; stroke-opacity:1; fill:none" points="
  412.682,369.674 412.682,364.188 
  "/>
<polyline clip-path="url(#clip02)" style="stroke:#00002d; stroke-width:0.8; stroke-opacity:1; fill:none" points="
  536.739,369.674 536.739,364.188 
  "/>
<polyline clip-path="url(#clip02)" style="stroke:#00002d; stroke-width:0.8; stroke-opacity:1; fill:none" points="
  28.1037,369.674 28.1037,3.93701 
  "/>
<polyline clip-path="url(#clip02)" style="stroke:#00002d; stroke-width:0.8; stroke-opacity:1; fill:none" points="
  28.1037,358.757 36.6231,358.757 
  "/>
<polyline clip-path="url(#clip02)" style="stroke:#00002d; stroke-width:0.8; stroke-opacity:1; fill:none" points="
  28.1037,249.581 36.6231,249.581 
  "/>
<polyline clip-path="url(#clip02)" style="stroke:#00002d; stroke-width:0.8; stroke-opacity:1; fill:none" points="
  28.1037,140.406 36.6231,140.406 
  "/>
<polyline clip-path="url(#clip02)" style="stroke:#00002d; stroke-width:0.8; stroke-opacity:1; fill:none" points="
  28.1037,31.2308 36.6231,31.2308 
  "/>
<g clip-path="url(#clip00)">
<text style="fill:#00002d; fill-opacity:1; font-family:Arial,Helvetica Neue,Helvetica,sans-serif; font-size:12; text-anchor:middle;" transform="rotate(0, 40.5094, 381.674)" x="40.5094" y="381.674">0</text>
</g>
<g clip-path="url(#clip00)">
<text style="fill:#00002d; fill-opacity:1; font-family:Arial,Helvetica Neue,Helvetica,sans-serif; font-size:12; text-anchor:middle;" transform="rotate(0, 164.567, 381.674)" x="164.567" y="381.674">1</text>
</g>
<g clip-path="url(#clip00)">
<text style="fill:#00002d; fill-opacity:1; font-family:Arial,Helvetica Neue,Helvetica,sans-serif; font-size:12; text-anchor:middle;" transform="rotate(0, 288.624, 381.674)" x="288.624" y="381.674">2</text>
</g>
<g clip-path="url(#clip00)">
<text style="fill:#00002d; fill-opacity:1; font-family:Arial,Helvetica Neue,Helvetica,sans-serif; font-size:12; text-anchor:middle;" transform="rotate(0, 412.682, 381.674)" x="412.682" y="381.674">3</text>
</g>
<g clip-path="url(#clip00)">
<text style="fill:#00002d; fill-opacity:1; font-family:Arial,Helvetica Neue,Helvetica,sans-serif; font-size:12; text-anchor:middle;" transform="rotate(0, 536.739, 381.674)" x="536.739" y="381.674">4</text>
</g>
<g clip-path="url(#clip00)">
<text style="fill:#00002d; fill-opacity:1; font-family:Arial,Helvetica Neue,Helvetica,sans-serif; font-size:12; text-anchor:end;" transform="rotate(0, 26.9037, 363.257)" x="26.9037" y="363.257">0</text>
</g>
<g clip-path="url(#clip00)">
<text style="fill:#00002d; fill-opacity:1; font-family:Arial,Helvetica Neue,Helvetica,sans-serif; font-size:12; text-anchor:end;" transform="rotate(0, 26.9037, 254.081)" x="26.9037" y="254.081">1</text>
</g>
<g clip-path="url(#clip00)">
<text style="fill:#00002d; fill-opacity:1; font-family:Arial,Helvetica Neue,Helvetica,sans-serif; font-size:12; text-anchor:end;" transform="rotate(0, 26.9037, 144.906)" x="26.9037" y="144.906">2</text>
</g>
<g clip-path="url(#clip00)">
<text style="fill:#00002d; fill-opacity:1; font-family:Arial,Helvetica Neue,Helvetica,sans-serif; font-size:12; text-anchor:end;" transform="rotate(0, 26.9037, 35.7308)" x="26.9037" y="35.7308">3</text>
</g>
<g clip-path="url(#clip00)">
<text style="fill:#00002d; fill-opacity:1; font-family:Arial,Helvetica Neue,Helvetica,sans-serif; font-size:16; text-anchor:middle;" transform="rotate(0, 312.083, 397.6)" x="312.083" y="397.6">time (s)</text>
</g>
<g clip-path="url(#clip00)">
<text style="fill:#00002d; fill-opacity:1; font-family:Arial,Helvetica Neue,Helvetica,sans-serif; font-size:16; text-anchor:middle;" transform="rotate(-90, 14.4, 186.806)" x="14.4" y="186.806">u1</text>
</g>
<polyline clip-path="url(#clip02)" style="stroke:#0099ff; stroke-width:4.4; stroke-opacity:1; fill:none" points="
  40.5094,358.757 45.7345,358.757 50.9596,358.757 56.1847,358.757 61.4098,358.757 66.6349,358.757 71.8599,358.757 77.085,358.757 82.3101,358.757 87.5352,358.757 
  92.7603,358.757 97.9854,358.757 103.21,358.757 108.436,358.757 113.661,358.757 118.886,358.757 124.111,358.757 129.336,358.757 134.561,358.757 139.786,358.757 
  145.011,358.757 150.236,358.757 155.461,358.757 160.686,358.757 165.912,358.757 171.137,358.757 176.362,358.757 181.587,358.757 186.812,358.757 192.037,358.757 
  197.262,358.757 202.487,358.757 207.712,358.757 212.937,358.757 218.162,358.757 223.387,358.757 228.613,358.757 233.838,358.757 239.063,358.757 244.288,358.757 
  249.513,358.757 254.738,358.757 259.963,358.757 265.188,358.757 270.413,358.757 275.638,358.757 280.863,358.757 286.089,358.757 291.314,358.757 296.539,358.757 
  301.764,358.757 306.989,358.757 312.214,358.757 317.439,358.757 322.664,358.757 327.889,358.757 333.114,358.757 338.339,358.757 343.564,358.757 348.79,358.757 
  354.015,358.757 359.24,358.757 364.465,358.757 369.69,358.757 374.915,358.757 380.14,358.757 385.365,358.757 390.59,358.757 395.815,358.757 401.04,358.757 
  406.266,358.757 411.491,358.757 416.716,358.757 421.941,358.757 427.166,358.757 432.391,358.757 437.616,358.757 442.841,358.757 448.066,358.757 453.291,358.757 
  458.516,358.757 463.741,358.757 468.967,358.757 474.192,358.757 479.417,358.757 484.642,358.757 489.867,358.757 495.092,358.757 500.317,358.757 505.542,358.757 
  510.767,358.757 515.992,358.757 521.217,358.757 526.443,358.757 531.668,358.757 536.893,358.757 542.118,358.757 547.343,358.757 552.568,358.757 557.793,358.757 
  
  "/>
<polyline clip-path="url(#clip02)" style="stroke:#e9746a; stroke-width:4.4; stroke-opacity:1; fill:none" points="
  40.5094,31.2308 45.7345,31.2308 50.9596,31.2308 56.1847,31.2308 61.4098,31.2308 66.6349,31.2308 71.8599,31.2308 77.085,31.2308 82.3101,31.2308 87.5352,31.2308 
  92.7603,31.2308 97.9854,31.2308 103.21,31.2308 108.436,31.2308 113.661,31.2308 118.886,31.2308 124.111,31.2308 129.336,31.2308 134.561,31.2308 139.786,31.2308 
  145.011,31.2308 150.236,31.2308 155.461,31.2308 160.686,31.2308 165.912,31.2308 171.137,31.2308 176.362,31.2308 181.587,31.2308 186.812,31.2308 192.037,31.2308 
  197.262,31.2308 202.487,31.2308 207.712,31.2308 212.937,31.2308 218.162,31.2308 223.387,31.2308 228.613,31.2308 233.838,31.2308 239.063,31.2308 244.288,31.2308 
  249.513,31.2308 254.738,31.2308 259.963,31.2308 265.188,31.2308 270.413,31.2308 275.638,31.2308 280.863,31.2308 286.089,31.2308 291.314,31.2308 296.539,31.2308 
  301.764,31.2308 306.989,31.2308 312.214,31.2308 317.439,31.2308 322.664,31.2308 327.889,31.2308 333.114,31.2308 338.339,31.2308 343.564,31.2308 348.79,31.2308 
  354.015,31.2308 359.24,31.2308 364.465,31.2308 369.69,31.2308 374.915,31.2308 380.14,31.2308 385.365,31.2308 390.59,31.2308 395.815,31.2308 401.04,31.2308 
  406.266,31.2308 411.491,31.2308 416.716,31.2308 421.941,31.2308 427.166,31.2308 432.391,31.2308 437.616,31.2308 442.841,31.2308 448.066,31.2308 453.291,31.2308 
  458.516,31.2308 463.741,31.2308 468.967,31.2308 474.192,31.2308 479.417,31.2308 484.642,31.2308 489.867,31.2308 495.092,31.2308 500.317,31.2308 505.542,31.2308 
  510.767,31.2308 515.992,31.2308 521.217,31.2308 526.443,31.2308 531.668,31.2308 536.893,31.2308 542.118,31.2308 547.343,31.2308 552.568,31.2308 557.793,31.2308 
  
  "/>
<polyline clip-path="url(#clip02)" style="stroke:#3cb370; stroke-width:2.4; stroke-opacity:1; fill:none" points="
  40.5094,358.757 58.5833,358.757 94.3599,358.757 134.029,358.757 162.446,358.757 169.83,358.756 187.904,350.53 223.681,31.2308 263.35,31.2308 291.766,31.2308 
  299.151,31.2308 326.611,31.2308 375.52,31.2308 417.016,31.2308 428.472,31.2308 441.215,31.2308 467.855,31.2308 501.154,31.2308 532.186,31.2308 552.645,31.2308 
  557.793,358.757 
  "/>
<polygon clip-path="url(#clip00)" points="
495.675,85.297 578.063,85.297 578.063,24.817 495.675,24.817 
  " fill="#ffffff" fill-opacity="1"/>
<polyline clip-path="url(#clip00)" style="stroke:#00002d; stroke-width:0.8; stroke-opacity:1; fill:none" points="
  495.675,85.297 578.063,85.297 578.063,24.817 495.675,24.817 495.675,85.297 
  "/>
<polyline clip-path="url(#clip00)" style="stroke:#0099ff; stroke-width:4.4; stroke-opacity:1; fill:none" points="
  501.675,39.937 537.675,39.937 
  "/>
<g clip-path="url(#clip00)">
<text style="fill:#00002d; fill-opacity:1; font-family:Arial,Helvetica Neue,Helvetica,sans-serif; font-size:12; text-anchor:start;" transform="rotate(0, 543.675, 44.437)" x="543.675" y="44.437">min</text>
</g>
<polyline clip-path="url(#clip00)" style="stroke:#e9746a; stroke-width:4.4; stroke-opacity:1; fill:none" points="
  501.675,55.057 537.675,55.057 
  "/>
<g clip-path="url(#clip00)">
<text style="fill:#00002d; fill-opacity:1; font-family:Arial,Helvetica Neue,Helvetica,sans-serif; font-size:12; text-anchor:start;" transform="rotate(0, 543.675, 59.557)" x="543.675" y="59.557">max</text>
</g>
<polyline clip-path="url(#clip00)" style="stroke:#3cb370; stroke-width:2.4; stroke-opacity:1; fill:none" points="
  501.675,70.177 537.675,70.177 
  "/>
<g clip-path="url(#clip00)">
<text style="fill:#00002d; fill-opacity:1; font-family:Arial,Helvetica Neue,Helvetica,sans-serif; font-size:12; text-anchor:start;" transform="rotate(0, 543.675, 74.677)" x="543.675" y="74.677">mpc</text>
</g>
</svg>
