<?xml version="1.0" encoding="utf-8"?>
<svg xmlns="http://www.w3.org/2000/svg" xmlns:xlink="http://www.w3.org/1999/xlink" width="600" height="400" viewBox="0 0 600 400">
<defs>
  <clipPath id="clip00">
    <rect x="0" y="0" width="600" height="400"/>
  </clipPath>
</defs>
<polygon clip-path="url(#clip00)" points="
0,400 600,400 600,0 0,0 
  " fill="#ffffff" fill-opacity="1"/>
<defs>
  <clipPath id="clip01">
    <rect x="120" y="0" width="421" height="400"/>
  </clipPath>
</defs>
<polygon clip-path="url(#clip00)" points="
36.9926,369.674 596.063,369.674 596.063,3.93701 36.9926,3.93701 
  " fill="#ffffff" fill-opacity="1"/>
<defs>
  <clipPath id="clip02">
    <rect x="36" y="3" width="560" height="366"/>
  </clipPath>
</defs>
<polyline clip-path="url(#clip02)" style="stroke:#00002d; stroke-width:0.8; stroke-opacity:0.5; fill:none" stroke-dasharray="1, 2" points="
  49.2042,364.188 49.2042,9.42306 
  "/>
<polyline clip-path="url(#clip02)" style="stroke:#00002d; stroke-width:0.8; stroke-opacity:0.5; fill:none" stroke-dasharray="1, 2" points="
  171.32,364.188 171.32,9.42306 
  "/>
<polyline clip-path="url(#clip02)" style="stroke:#00002d; stroke-width:0.8; stroke-opacity:0.5; fill:none" stroke-dasharray="1, 2" points="
  293.436,364.188 293.436,9.42306 
  "/>
<polyline clip-path="url(#clip02)" style="stroke:#00002d; stroke-width:0.8; stroke-opacity:0.5; fill:none" stroke-dasharray="1, 2" points="
  415.552,364.188 415.552,9.42306 
  "/>
<polyline clip-path="url(#clip02)" style="stroke:#00002d; stroke-width:0.8; stroke-opacity:0.5; fill:none" stroke-dasharray="1, 2" points="
  537.668,364.188 537.668,9.42306 
  "/>
<polyline clip-path="url(#clip02)" style="stroke:#00002d; stroke-width:0.8; stroke-opacity:0.5; fill:none" stroke-dasharray="1, 2" points="
  45.3786,294.428 587.677,294.428 
  "/>
<polyline clip-path="url(#clip02)" style="stroke:#00002d; stroke-width:0.8; stroke-opacity:0.5; fill:none" stroke-dasharray="1, 2" points="
  45.3786,197.759 587.677,197.759 
  "/>
<polyline clip-path="url(#clip02)" style="stroke:#00002d; stroke-width:0.8; stroke-opacity:0.5; fill:none" stroke-dasharray="1, 2" points="
  45.3786,101.09 587.677,101.09 
  "/>
<polyline clip-path="url(#clip02)" style="stroke:#00002d; stroke-width:0.8; stroke-opacity:0.5; fill:none" stroke-dasharray="1, 2" points="
  45.3786,4.42035 587.677,4.42035 
  "/>
<polyline clip-path="url(#clip02)" style="stroke:#00002d; stroke-width:0.8; stroke-opacity:1; fill:none" points="
  36.9926,369.674 596.063,369.674 
  "/>
<polyline clip-path="url(#clip02)" style="stroke:#00002d; stroke-width:0.8; stroke-opacity:1; fill:none" points="
  49.2042,369.674 49.2042,364.188 
  "/>
<polyline clip-path="url(#clip02)" style="stroke:#00002d; stroke-width:0.8; stroke-opacity:1; fill:none" points="
  171.32,369.674 171.32,364.188 
  "/>
<polyline clip-path="url(#clip02)" style="stroke:#00002d; stroke-width:0.8; stroke-opacity:1; fill:none" points="
  293.436,369.674 293.436,364.188 
  "/>
<polyline clip-path="url(#clip02)" style="stroke:#00002d; stroke-width:0.8; stroke-opacity:1; fill:none" points="
  415.552,369.674 415.552,364.188 
  "/>
<polyline clip-path="url(#clip02)" style="stroke:#00002d; stroke-width:0.8; stroke-opacity:1; fill:none" points="
  537.668,369.674 537.668,364.188 
  "/>
<polyline clip-path="url(#clip02)" style="stroke:#00002d; stroke-width:0.8; stroke-opacity:1; fill:none" points="
  36.9926,369.674 36.9926,3.93701 
  "/>
<polyline clip-path="url(#clip02)" style="stroke:#00002d; stroke-width:0.8; stroke-opacity:1; fill:none" points="
  36.9926,294.428 45.3786,294.428 
  "/>
<polyline clip-path="url(#clip02)" style="stroke:#00002d; stroke-width:0.8; stroke-opacity:1; fill:none" points="
  36.9926,197.759 45.3786,197.759 
  "/>
<polyline clip-path="url(#clip02)" style="stroke:#00002d; stroke-width:0.8; stroke-opacity:1; fill:none" points="
  36.9926,101.09 45.3786,101.09 
  "/>
<polyline clip-path="url(#clip02)" style="stroke:#00002d; stroke-width:0.8; stroke-opacity:1; fill:none" points="
  36.9926,4.42035 45.3786,4.42035 
  "/>
<g clip-path="url(#clip00)">
<text style="fill:#00002d; fill-opacity:1; font-family:Arial,Helvetica Neue,Helvetica,sans-serif; font-size:12; text-anchor:middle;" transform="rotate(0, 49.2042, 381.674)" x="49.2042" y="381.674">0</text>
</g>
<g clip-path="url(#clip00)">
<text style="fill:#00002d; fill-opacity:1; font-family:Arial,Helvetica Neue,Helvetica,sans-serif; font-size:12; text-anchor:middle;" transform="rotate(0, 171.32, 381.674)" x="171.32" y="381.674">1</text>
</g>
<g clip-path="url(#clip00)">
<text style="fill:#00002d; fill-opacity:1; font-family:Arial,Helvetica Neue,Helvetica,sans-serif; font-size:12; text-anchor:middle;" transform="rotate(0, 293.436, 381.674)" x="293.436" y="381.674">2</text>
</g>
<g clip-path="url(#clip00)">
<text style="fill:#00002d; fill-opacity:1; font-family:Arial,Helvetica Neue,Helvetica,sans-serif; font-size:12; text-anchor:middle;" transform="rotate(0, 415.552, 381.674)" x="415.552" y="381.674">3</text>
</g>
<g clip-path="url(#clip00)">
<text style="fill:#00002d; fill-opacity:1; font-family:Arial,Helvetica Neue,Helvetica,sans-serif; font-size:12; text-anchor:middle;" transform="rotate(0, 537.668, 381.674)" x="537.668" y="381.674">4</text>
</g>
<g clip-path="url(#clip00)">
<text style="fill:#00002d; fill-opacity:1; font-family:Arial,Helvetica Neue,Helvetica,sans-serif; font-size:12; text-anchor:end;" transform="rotate(0, 35.7926, 298.928)" x="35.7926" y="298.928">-3</text>
</g>
<g clip-path="url(#clip00)">
<text style="fill:#00002d; fill-opacity:1; font-family:Arial,Helvetica Neue,Helvetica,sans-serif; font-size:12; text-anchor:end;" transform="rotate(0, 35.7926, 202.259)" x="35.7926" y="202.259">-2</text>
</g>
<g clip-path="url(#clip00)">
<text style="fill:#00002d; fill-opacity:1; font-family:Arial,Helvetica Neue,Helvetica,sans-serif; font-size:12; text-anchor:end;" transform="rotate(0, 35.7926, 105.59)" x="35.7926" y="105.59">-1</text>
</g>
<g clip-path="url(#clip00)">
<text style="fill:#00002d; fill-opacity:1; font-family:Arial,Helvetica Neue,Helvetica,sans-serif; font-size:12; text-anchor:end;" transform="rotate(0, 35.7926, 8.92035)" x="35.7926" y="8.92035">0</text>
</g>
<g clip-path="url(#clip00)">
<text style="fill:#00002d; fill-opacity:1; font-family:Arial,Helvetica Neue,Helvetica,sans-serif; font-size:16; text-anchor:middle;" transform="rotate(0, 316.528, 397.6)" x="316.528" y="397.6">time (s)</text>
</g>
<g clip-path="url(#clip00)">
<text style="fill:#00002d; fill-opacity:1; font-family:Arial,Helvetica Neue,Helvetica,sans-serif; font-size:16; text-anchor:middle;" transform="rotate(-90, 14.4, 186.806)" x="14.4" y="186.806">v(t)</text>
</g>
<polyline clip-path="url(#clip02)" style="stroke:#0099ff; stroke-width:2.4; stroke-opacity:1; fill:none" points="
  49.2042,188.092 66.9952,210.981 102.212,256.288 141.26,306.525 169.232,342.512 176.501,351.864 194.292,377.149 229.509,378.722 268.557,325.664 296.529,301.351 
  303.798,291.169 330.828,261.751 378.971,209.356 419.818,164.901 431.095,152.628 443.638,138.977 469.862,110.437 502.639,74.7646 533.186,41.5202 553.324,19.6026 
  558.392,14.0873 
  "/>
<polygon clip-path="url(#clip00)" points="
495.675,55.057 578.063,55.057 578.063,24.817 495.675,24.817 
  " fill="#ffffff" fill-opacity="1"/>
<polyline clip-path="url(#clip00)" style="stroke:#00002d; stroke-width:0.8; stroke-opacity:1; fill:none" points="
  495.675,55.057 578.063,55.057 578.063,24.817 495.675,24.817 495.675,55.057 
  "/>
<polyline clip-path="url(#clip00)" style="stroke:#0099ff; stroke-width:2.4; stroke-opacity:1; fill:none" points="
  501.675,39.937 537.675,39.937 
  "/>
<g clip-path="url(#clip00)">
<text style="fill:#00002d; fill-opacity:1; font-family:Arial,Helvetica Neue,Helvetica,sans-serif; font-size:12; text-anchor:start;" transform="rotate(0, 543.675, 44.437)" x="543.675" y="44.437">mpc</text>
</g>
</svg>
